%
M48
M72
T01C0.02756
T02C0.04000
%
T01
X39500Y21500
X46000Y25000
X39500Y41000
X46000Y46000
X65000Y17500
X72500Y17500
X101000Y51000
X97500Y57000
X91000Y61000
X110000Y47000
X121000Y51000
X117500Y91000
X113500Y96000
X116000Y106000
X46000Y116000
T02
X26000Y26000
X27000Y36000
X26000Y46000
X27000Y56000
X26000Y66000
X27000Y76000
M30
